<svg width="45" height="35" viewBox="0 0 45 35" fill="none" xmlns="http://www.w3.org/2000/svg">
<path d="M0.732187 4.26777C-0.244063 3.29121 -0.244063 1.7084 0.732187 0.731835C1.70859 -0.243945 3.29141 -0.243945 4.26797 0.731835L19.2656 15.7342C20.2422 16.7107 20.2422 18.2889 19.2656 19.2654L4.26797 34.2654C3.29141 35.242 1.70859 35.242 0.732187 34.2654C-0.244063 33.2888 -0.244063 31.7107 0.732187 30.7342L13.9609 17.4998L0.732187 4.26777ZM42.5 29.9998C43.8828 29.9998 45 31.117 45 32.4998C45 33.8826 43.8828 34.9998 42.5 34.9998H20C18.6172 34.9998 17.5 33.8826 17.5 32.4998C17.5 31.117 18.6172 29.9998 20 29.9998H42.5Z" fill="#D9D9D9"/>
</svg>
